<?xml version="1.0" encoding="UTF-8" standalone="no"?>
<!-- Created with Inkscape (http://www.inkscape.org/) -->

<svg
   width="1024"
   height="1024"
   viewBox="0 0 270.93332 270.93334"
   version="1.1"
   id="svg5"
   inkscape:version="1.1 (c4e8f9e, 2021-05-24)"
   sodipodi:docname="savoredLogo.svg"
   xmlns:inkscape="http://www.inkscape.org/namespaces/inkscape"
   xmlns:sodipodi="http://sodipodi.sourceforge.net/DTD/sodipodi-0.dtd"
   xmlns="http://www.w3.org/2000/svg"
   xmlns:svg="http://www.w3.org/2000/svg">
  <sodipodi:namedview
     id="namedview7"
     pagecolor="#ffffff"
     bordercolor="#999999"
     borderopacity="1"
     inkscape:pageshadow="0"
     inkscape:pageopacity="0"
     inkscape:pagecheckerboard="0"
     inkscape:document-units="mm"
     showgrid="false"
     fit-margin-top="0"
     fit-margin-left="0"
     fit-margin-right="0"
     fit-margin-bottom="0"
     inkscape:zoom="0.39553155"
     inkscape:cx="532.19522"
     inkscape:cy="383.02886"
     inkscape:window-width="2048"
     inkscape:window-height="1227"
     inkscape:window-x="0"
     inkscape:window-y="25"
     inkscape:window-maximized="0"
     inkscape:current-layer="layer1"
     units="px"
     width="1024px" />
  <defs
     id="defs2" />
  <g
     inkscape:label="Layer 1"
     inkscape:groupmode="layer"
     id="layer1"
     transform="translate(-43.604059,-173.92972)">
    <g
       id="g914"
       transform="translate(3.5800347e-5,56.099487)">
      <path
         style="fill:#ff5454;fill-opacity:1;stroke:none;stroke-width:0.422953"
         d="m 238.21833,174.22269 c -3.53926,1.90626 -4.05612,12.42762 -4.7929,16.05402 -1.49386,7.35132 -3.31806,15.29395 -2.3753,22.83943 0.4441,3.55449 3.7021,5.58889 4.44607,8.88198 1.3615,6.02921 0.12805,13.69182 0.12805,19.87877 0,4.85338 -0.77908,10.45327 0.0964,15.22588 0.38828,2.11519 2.39688,3.53926 4.50996,2.64684 2.04116,-0.86198 1.73706,-3.36588 1.7379,-5.18414 v -13.95744 -51.60019 c 0,-3.77317 1.065,-9.0922 0.16402,-12.68222 -0.41831,-1.66602 -2.22686,-3.01143 -3.91443,-2.10293 m -114.67637,26.20487 0.42296,-9.7279 -0.42296,-16.49515 c -2.09952,1.18681 -1.2697,3.78753 -1.26884,5.92132 v 14.80334 c -0.002,2.0712 -0.76934,4.34627 1.26884,5.49839 m 4.22953,-26.22305 -0.42295,16.49515 0.42295,9.7279 h 0.84591 l 0.42296,-9.7279 -0.42296,-16.49515 h -0.84567 m 51.17726,1.87113 c -8.12619,1.08023 -15.32527,3.42337 -21.99353,8.34571 -18.64628,13.76413 -21.08967,42.21868 -6.2174,59.57032 9.35654,10.91638 23.45862,15.68435 37.51587,13.83518 5.23319,-0.68856 10.24602,-2.71493 14.80333,-5.32242 31.08615,-17.78389 23.47555,-68.24465 -11.84267,-75.42342 -4.03283,-0.81968 -8.1452,-1.55265 -12.2656,-1.00537 m 60.90515,-0.17936 c 1.76879,5.98309 0.42295,14.06022 0.42295,20.30173 v 42.7182 14.80333 c -4.3e-4,1.02397 0.33539,4.60469 -1.58226,4.26293 -1.5256,-0.27194 -0.95547,-4.04468 -0.95547,-5.10884 v -16.0722 c 0,-4.71888 1.13394,-11.12363 -0.21748,-15.64922 -0.89454,-2.99663 -3.84803,-4.7857 -4.36148,-8.03609 -1.29424,-8.18837 1.11279,-16.94264 2.71788,-24.95421 0.80658,-4.02566 1.20963,-8.60326 3.12985,-12.26563 h 0.84591 m -106.58401,0.84591 c -2.09742,1.16778 -1.32469,3.38786 -1.26295,5.4984 0.14891,5.08133 1.07347,10.14492 1.2583,15.22628 0.10118,2.77625 1.01805,5.55422 -0.69449,8.03567 -1.35176,1.9587 -5.18329,3.22797 -5.58256,5.54321 -1.75737,10.18893 -0.0626,22.1682 -0.0626,32.52294 v 10.57381 c -0.002,1.12758 0.25335,3.13788 -0.95544,3.79091 -1.48712,0.8032 -1.56536,-1.72395 -1.58016,-2.52248 -0.0693,-3.66234 -0.002,-7.33315 -0.002,-10.99635 0,-10.56618 1.60763,-22.56323 -0.0626,-32.98393 -0.40857,-2.54871 -3.61455,-3.31722 -5.13591,-5.15538 -2.08051,-2.51361 -1.50613,-5.40533 -1.2177,-8.38544 0.50247,-5.1909 1.08572,-10.44229 1.34078,-15.64924 0.0503,-1.03074 1.07428,-4.79629 -0.49487,-5.10884 -1.52517,-0.30369 -1.56322,3.80359 -1.60341,4.68588 -0.24319,5.36558 -1.08572,10.7083 -1.28069,16.0722 -0.12972,3.56295 -0.88228,6.53841 1.30987,9.71099 1.32215,1.91386 4.57381,2.72634 4.96715,5.11052 1.77896,10.78191 0.0626,23.29876 0.0626,34.24097 0,3.15311 -1.28493,10.06752 1.06332,12.505 1.56068,1.62034 4.55096,1.17919 5.14648,-1.09332 1.1462,-4.37419 0.13452,-10.27225 0.13452,-14.7953 v -20.72468 c 0,-3.13661 -0.65135,-7.10221 0.13452,-10.14452 0.82687,-3.20131 5.38841,-4.17411 6.58663,-7.61947 1.13816,-3.27238 0.14123,-7.63092 -0.2559,-10.99676 -0.66403,-5.62402 0.0144,-11.94461 -1.81276,-17.34107 m 45.2559,1.38984 c 4.89989,-0.5786 10.13985,0.0321 14.80333,1.57126 30.83535,10.17708 38.17526,53.21206 9.30494,70.79547 -5.18115,3.15566 -10.89271,5.04074 -16.91808,5.68828 -4.66473,0.5012 -9.4145,0.042 -13.95742,-1.20329 -31.63303,-8.66884 -39.16328,-52.32769 -11.41972,-70.48291 5.58045,-3.65177 11.60454,-5.59186 18.18695,-6.36881 m 0,7.67191 c -5.08853,0.69281 -9.60778,2.14269 -13.95742,4.91853 -16.48499,10.52009 -18.72284,35.24885 -5.00353,48.96774 7.04047,7.0409 17.21458,10.10644 26.99705,8.83168 4.14958,-0.54096 8.27293,-2.03102 11.84267,-4.19359 27.85099,-16.87327 13.09502,-63.01314 -19.87877,-58.52436 m -0.84588,2.05726 c 30.77103,-4.00833 46.18722,37.11576 20.3017,54.28806 -3.4035,2.25815 -7.37123,3.71225 -11.41972,4.25785 -4.69097,0.63231 -9.44325,0.36968 -13.95742,-1.1483 -28.58017,-9.60949 -25.51079,-53.41298 5.07544,-57.39761"
         id="path125"
         inkscape:export-filename="/Users/yoshiohasegawa/Desktop/savoredLogo.png"
         inkscape:export-xdpi="96"
         inkscape:export-ydpi="96"
         sodipodi:nodetypes="ccscsccccscccccccccccccccccsccsccscccssccccccccscscccscccccccccsccsscccccscccccccccccccccc" />
      <text
         xml:space="preserve"
         style="font-style:normal;font-weight:normal;font-size:70.5315px;line-height:1.25;font-family:sans-serif;fill:#ff5454;fill-opacity:1;stroke:none;stroke-width:1.76329"
         x="39.850185"
         y="331.59647"
         id="text1300"><tspan
           sodipodi:role="line"
           id="tspan1298"
           style="font-style:normal;font-variant:normal;font-weight:bold;font-stretch:normal;font-size:70.5315px;font-family:sans-serif;-inkscape-font-specification:'sans-serif, Bold';font-variant-ligatures:normal;font-variant-caps:normal;font-variant-numeric:normal;font-variant-east-asian:normal;fill:#ff5454;fill-opacity:1;stroke-width:1.76329"
           x="39.850185"
           y="331.59647">SAVOR</tspan></text>
    </g>
  </g>
</svg>
